# xmcd
#
# Track frame offsets:
#	150
#	13514
#	30122
#	42376
#	60347
#	77497
#	92330
#	96315
#	110569
#	115115
#	129060
#	131925
#	144510
#	161408
#	185078
#
# Disc length: 2496 seconds
#
# Revision: 1
# Processed by: cddbd v1.5PL3 Copyright (c) Steve Scherf et al.
# Submitted via: CDmax 2.0
#
DISCID=b509be0f
DTITLE=Convertible
DYEAR=2004
DGENRE=Rock
TTITLE0=Morning
TTITLE1=Your reward
TTITLE2=Just as long
TTITLE3=Skuks and porcupines
TTITLE4=Your pull is gone
TTITLE5=I shall try
TTITLE6=Interlude 1
TTITLE7=Weather
TTITLE8=Interlude 2
TTITLE9=Bleeding inside
TTITLE10=Interlude 3
TTITLE11=Saving all my love
TTITLE12=I saw you
TTITLE13=Steps
TTITLE14=?
EXTD=
EXTT0=
EXTT1=
EXTT2=
EXTT3=
EXTT4=
EXTT5=
EXTT6=
EXTT7=
EXTT8=
EXTT9=
EXTT10=
EXTT11=
EXTT12=
EXTT13=
EXTT14=
PLAYORDER=
